<svg width="1200" height="630" viewBox="0 0 1200 630" fill="none">
  <defs>
    <linearGradient id="bgGradient" x1="0%" y1="0%" x2="100%" y2="100%">
      <stop offset="0%" style="stop-color:#6366f1;stop-opacity:1" />
      <stop offset="100%" style="stop-color:#8b5cf6;stop-opacity:1" />
    </linearGradient>
  </defs>
  <rect width="1200" height="630" fill="url(#bgGradient)"/>
  
  <!-- Logo -->
  <circle cx="100" cy="100" r="40" fill="white" opacity="0.2"/>
  <path d="M80 90h40v8H80v-8zm0 12h40v8H80v-8zm0 12h30v8H80v-8z" fill="white"/>
  <circle cx="130" cy="80" r="8" fill="#10b981"/>
  
  <!-- Title -->
  <text x="200" y="120" fill="white" font-family="Arial, sans-serif" font-size="48" font-weight="bold">FitnessAI Bot</text>
  <text x="200" y="170" fill="white" font-family="Arial, sans-serif" font-size="24" opacity="0.9">Персональный ИИ-тренер в Telegram</text>
  
  <!-- Features -->
  <text x="200" y="220" fill="white" font-family="Arial, sans-serif" font-size="18">✨ Персональные планы тренировок</text>
  <text x="200" y="250" fill="white" font-family="Arial, sans-serif" font-size="18">📸 Анализ фото еды и упражнений</text>
  <text x="200" y="280" fill="white" font-family="Arial, sans-serif" font-size="18">📊 Отслеживание прогресса</text>
  <text x="200" y="310" fill="white" font-family="Arial, sans-serif" font-size="18">🌐 Русский и английский языки</text>
  
  <!-- CTA -->
  <rect x="200" y="350" width="200" height="50" rx="25" fill="white"/>
  <text x="300" y="380" text-anchor="middle" fill="#6366f1" font-family="Arial, sans-serif" font-size="18" font-weight="bold">Попробовать бесплатно</text>
  
  <!-- Phone mockup -->
  <rect x="800" y="150" width="200" height="350" rx="30" fill="white" opacity="0.1"/>
  <rect x="820" y="170" width="160" height="310" rx="20" fill="white"/>
  <circle cx="900" cy="190" r="3" fill="#6366f1"/>
  <rect x="830" y="200" width="140" height="8" rx="4" fill="#6366f1"/>
  <rect x="830" y="220" width="100" height="6" rx="3" fill="#e2e8f0"/>
  <rect x="830" y="240" width="120" height="6" rx="3" fill="#e2e8f0"/>
</svg>
